<?xml version="1.0"?><svg id="Layer_2" xmlns="http://www.w3.org/2000/svg" viewBox="0 0 1098.48 172.18">
  <defs>
    
  </defs>
  <g id="Calque_1">
    <g>
      <path class="cls-2" d="M228.25,168.72V42.38c0-22.13,17.94-40.07,40.07-40.07h58.5v6.18c0,9.92-8.05,17.97-17.97,17.97h-40.33c-8.9,0-16.11,7.21-16.11,16.11v30.8h56.23v6.3c0,9.92-8.05,17.97-17.97,17.97h-38.26v71.07h-24.15Z"></path>
      <path class="cls-2" d="M385.94,172.18c-12.4,0-23.28-2.72-32.65-8.15-9.36-5.43-16.64-13.02-21.84-22.76-5.2-9.74-7.8-21.05-7.8-33.92,0-13.64,2.56-25.46,7.68-35.47,5.12-10.01,12.27-17.76,21.44-23.23,9.17-5.47,19.84-8.2,32.01-8.2s23.53,2.95,32.47,8.84c8.94,5.89,15.62,14.27,20.05,25.13,4.43,10.86,6.18,23.77,5.26,38.71h-24.15v-8.78c-.16-14.48-2.91-25.19-8.26-32.12-5.36-6.93-13.5-10.4-24.44-10.4-12.1,0-21.19,3.81-27.27,11.44-6.09,7.63-9.13,18.64-9.13,33.05s3.04,24.32,9.13,31.84c6.08,7.51,14.87,11.27,26.35,11.27,7.55,0,14.08-1.71,19.59-5.14,5.51-3.43,9.8-8.34,12.88-14.73l23.69,7.51c-4.85,11.17-12.21,19.82-22.07,25.94-9.86,6.13-20.84,9.19-32.93,9.19ZM341.45,113.13v-18.84h89.09v18.84h-89.09Z"></path>
      <path class="cls-2" d="M520.31,172.18c-12.4,0-23.28-2.72-32.65-8.15-9.36-5.43-16.64-13.02-21.84-22.76-5.2-9.74-7.8-21.05-7.8-33.92,0-13.64,2.56-25.46,7.68-35.47,5.12-10.01,12.27-17.76,21.44-23.23,9.17-5.47,19.84-8.2,32.01-8.2s23.53,2.95,32.47,8.84c8.94,5.89,15.62,14.27,20.05,25.13,4.43,10.86,6.18,23.77,5.26,38.71h-24.15v-8.78c-.16-14.48-2.91-25.19-8.26-32.12-5.36-6.93-13.5-10.4-24.44-10.4-12.1,0-21.19,3.81-27.27,11.44-6.09,7.63-9.13,18.64-9.13,33.05s3.04,24.32,9.13,31.84c6.08,7.51,14.87,11.27,26.35,11.27,7.55,0,14.08-1.71,19.59-5.14,5.51-3.43,9.8-8.34,12.88-14.73l23.69,7.51c-4.85,11.17-12.21,19.82-22.07,25.94-9.86,6.13-20.84,9.19-32.93,9.19ZM475.82,113.13v-18.84h89.09v18.84h-89.09Z"></path>
      <path class="cls-2" d="M647.47,172.18c-11.63,0-21.67-2.89-30.1-8.67-8.44-5.78-14.95-13.65-19.53-23.63-4.58-9.98-6.88-21.2-6.88-33.68s2.31-23.79,6.93-33.69c4.62-9.9,11.19-17.72,19.7-23.46,8.51-5.74,18.62-8.61,30.33-8.61s21.7,2.87,29.76,8.61c8.05,5.74,14.14,13.58,18.26,23.52,4.12,9.94,6.18,21.15,6.18,33.63s-2.08,23.69-6.24,33.63c-4.16,9.94-10.28,17.82-18.37,23.63-8.09,5.82-18.1,8.72-30.04,8.72ZM650.82,150.34c7.93,0,14.4-1.89,19.41-5.66,5.01-3.77,8.67-8.97,10.98-15.6s3.47-14.25,3.47-22.88-1.18-16.25-3.53-22.88c-2.35-6.62-5.97-11.79-10.86-15.48-4.89-3.7-11.11-5.55-18.66-5.55-8.01,0-14.6,1.96-19.76,5.89-5.16,3.93-9,9.21-11.5,15.83-2.5,6.63-3.76,14.02-3.76,22.19s1.25,15.7,3.76,22.36c2.5,6.66,6.28,11.96,11.32,15.89,5.05,3.93,11.42,5.89,19.13,5.89ZM684.68,168.72v-89.79h-2.77V2.31h14.59c5.34,0,9.68,4.33,9.68,9.68v156.72h-21.49Z"></path>
      <path class="cls-2" d="M729.17,168.72V2.31h14.59c5.34,0,9.68,4.33,9.68,9.68v66.94h-2.77v89.79h-21.49ZM787.87,172.18c-11.94,0-21.96-2.91-30.05-8.72-8.09-5.82-14.21-13.69-18.37-23.63s-6.24-21.15-6.24-33.63,2.06-23.69,6.18-33.63c4.12-9.94,10.21-17.78,18.26-23.52,8.05-5.74,17.97-8.61,29.76-8.61s21.82,2.87,30.33,8.61c8.51,5.74,15.08,13.56,19.7,23.46,4.62,9.9,6.93,21.13,6.93,33.69s-2.29,23.71-6.88,33.68c-4.59,9.98-11.09,17.85-19.53,23.63-8.44,5.78-18.47,8.67-30.1,8.67ZM784.52,150.34c7.7,0,14.08-1.96,19.12-5.89,5.04-3.93,8.82-9.22,11.32-15.89,2.5-6.66,3.76-14.12,3.76-22.36s-1.25-15.56-3.76-22.19c-2.5-6.62-6.34-11.9-11.5-15.83-5.16-3.93-11.75-5.89-19.76-5.89-7.55,0-13.77,1.85-18.66,5.55-4.89,3.7-8.51,8.86-10.86,15.48-2.35,6.63-3.53,14.25-3.53,22.88s1.16,16.25,3.47,22.88c2.31,6.63,5.97,11.83,10.98,15.6,5.01,3.78,11.48,5.66,19.41,5.66Z"></path>
      <rect class="cls-2" x="862.86" y="43.92" width="24.15" height="124.8"></rect>
      <path class="cls-1" d="M887.01,9.72v13.74h-24.15V0h14.44c5.37,0,9.71,4.35,9.71,9.72Z"></path>
      <path class="cls-2" d="M912.43,168.72V43.92h21.49v30.28l-3-3.93c1.54-4.01,3.54-7.68,6.01-11.04,2.47-3.35,5.32-6.1,8.55-8.26,3.16-2.31,6.68-4.1,10.57-5.37,3.89-1.27,7.88-2.04,11.96-2.31,4.08-.27,8.01-.06,11.79.64v22.65c-4.08-1.08-8.61-1.39-13.58-.92-4.97.46-9.53,2.04-13.69,4.74-3.93,2.54-7.03,5.63-9.3,9.25-2.27,3.62-3.91,7.65-4.91,12.08-1,4.43-1.5,9.11-1.5,14.04v62.98h-24.38Z"></path>
      <path class="cls-2" d="M1039.78,172.18c-11.63,0-21.67-2.89-30.1-8.67-8.44-5.78-14.95-13.65-19.53-23.63-4.59-9.98-6.88-21.2-6.88-33.68s2.31-23.79,6.93-33.69c4.62-9.9,11.19-17.72,19.7-23.46,8.51-5.74,18.62-8.61,30.33-8.61s21.7,2.87,29.76,8.61c8.05,5.74,14.14,13.58,18.26,23.52,4.12,9.94,6.18,21.15,6.18,33.63s-2.08,23.69-6.24,33.63-10.28,17.82-18.37,23.63c-8.09,5.82-18.1,8.72-30.05,8.72ZM1043.13,150.34c7.93,0,14.41-1.89,19.41-5.66,5.01-3.77,8.67-8.97,10.98-15.6,2.31-6.63,3.47-14.25,3.47-22.88s-1.18-16.25-3.53-22.88c-2.35-6.62-5.97-11.79-10.86-15.48-4.89-3.7-11.11-5.55-18.66-5.55-8.01,0-14.6,1.96-19.76,5.89-5.16,3.93-8.99,9.21-11.5,15.83-2.5,6.63-3.76,14.02-3.76,22.19s1.25,15.7,3.76,22.36c2.5,6.66,6.28,11.96,11.32,15.89,5.05,3.93,11.42,5.89,19.12,5.89ZM1076.99,168.72v-89.79h-2.77V2.31h24.27v166.4h-21.49Z"></path>
      <path class="cls-1" d="M73.79,13.85H0c1.35,14.21,13.34,25.36,27.9,25.36h46.99c30.12,0,54.62,24.5,54.62,54.62v46.99c0,14.55,11.15,26.55,25.36,27.9v-73.79c0-44.71-36.37-81.08-81.08-81.08Z"></path>
      <path class="cls-1" d="M69.96,59.61H22.47c1.35,14.21,13.34,25.36,27.9,25.36h20.69c7.01,0,12.71,5.7,12.71,12.71v20.67c0,14.55,11.15,26.55,25.36,27.9v-47.47c0-21.59-17.57-39.16-39.16-39.16Z"></path>
      <path class="cls-1" d="M124.14,8.53c14.61,9.07,26.98,21.43,36.05,36.05,3.98-4.6,6.22-10.53,6.22-16.7V2.31h-25.56c-6.21,0-12.08,2.19-16.71,6.21Z"></path>
    </g>
  </g>
</svg>